<svg width="30" height="33" viewBox="0 0 30 33" fill="none" xmlns="http://www.w3.org/2000/svg">
<g filter="url(#filter0_d_237_30)">
<path d="M15.0998 14.0994C16.7738 14.0994 20.7096 12.0236 20.7096 7.04963C20.7096 6.3559 20.6932 5.68576 20.6377 5.05252C20.5466 3.80612 20.2989 2.7015 19.6819 1.85491C18.8908 0.70324 17.5067 0 15.0998 0C12.6929 0 11.3087 0.703312 10.5176 1.85519C9.90105 2.70128 9.65326 3.80512 9.56209 5.05066C9.50644 5.68448 9.48999 6.35526 9.48999 7.0497C9.48999 12.0236 13.4258 14.0994 15.0998 14.0994ZM16.9309 2.58267C16.7675 3.00815 16.6857 3.22092 16.5222 3.64632C15.4669 3.3391 14.7326 3.3391 13.6773 3.64632C13.5138 3.22092 13.4321 3.00815 13.2686 2.58267C14.5883 2.17099 15.6113 2.17106 16.9309 2.58267ZM10.3246 5.97096C10.3891 6.11639 10.6636 6.67678 11.0888 6.72933C11.5773 6.78974 12.3883 4.94656 15.0998 4.94206C17.8113 4.94656 18.6222 6.78974 19.1107 6.72933C19.5359 6.67678 19.8105 6.11632 19.875 5.97096C19.8881 6.32802 20.6377 6.36898 20.6377 6.72933C20.6377 9.05462 19.6132 11.0394 18.7392 11.875C17.7283 13.2879 15.6529 13.9583 15.0998 13.9583C14.5466 13.9583 12.7639 13.1363 11.6626 12.0833C10.7885 11.2477 9.64065 8.88957 9.64065 6.45833C9.17693 6.45833 10.3114 6.32795 10.3246 5.97096Z" fill="white"/>
<path d="M25.5145 21.3293C25.228 19.4944 24.6385 17.1308 23.4559 16.2908C22.6484 15.7171 19.8308 14.1661 18.6277 13.5037L18.6069 13.4923C18.4694 13.4166 18.3014 13.4317 18.1788 13.531C17.5485 14.0408 16.8581 14.3844 16.1267 14.5522C15.9976 14.5819 15.8914 14.6765 15.8445 14.804L15.0999 16.8267L14.3551 14.804C14.3081 14.6765 14.2021 14.5819 14.0729 14.5522C13.3416 14.3844 12.6511 14.0408 12.0209 13.531C11.8981 13.4317 11.7303 13.4165 11.5928 13.4923C10.4039 14.1469 7.55192 15.7295 6.74729 16.2883C5.38596 17.2333 4.79067 20.6533 4.68513 21.3293C4.67472 21.3964 4.68076 21.465 4.70276 21.5289C4.75147 21.6707 6.00088 25 15.0999 25C24.1989 25 25.4483 21.6707 25.497 21.5289C25.5188 21.465 25.5249 21.3963 25.5145 21.3293Z" fill="white"/>
</g>
<defs>
<filter id="filter0_d_237_30" x="0.680176" y="0" width="28.8394" height="33" filterUnits="userSpaceOnUse" color-interpolation-filters="sRGB">
<feFlood flood-opacity="0" result="BackgroundImageFix"/>
<feColorMatrix in="SourceAlpha" type="matrix" values="0 0 0 0 0 0 0 0 0 0 0 0 0 0 0 0 0 0 127 0" result="hardAlpha"/>
<feOffset dy="4"/>
<feGaussianBlur stdDeviation="2"/>
<feComposite in2="hardAlpha" operator="out"/>
<feColorMatrix type="matrix" values="0 0 0 0 0 0 0 0 0 0 0 0 0 0 0 0 0 0 0.25 0"/>
<feBlend mode="normal" in2="BackgroundImageFix" result="effect1_dropShadow_237_30"/>
<feBlend mode="normal" in="SourceGraphic" in2="effect1_dropShadow_237_30" result="shape"/>
</filter>
</defs>
</svg>
