<svg width="100" height="73" viewBox="0 0 100 73" fill="none" xmlns="http://www.w3.org/2000/svg">
<g clip-path="url(#clip0_207_136)">
<path d="M100 0H92.1875V2.28125H96.875V6.84375H100V0ZM84.375 0H76.5625V2.28125H84.375V0ZM68.75 0H60.9375V2.28125H68.75V0ZM53.125 0H45.3125V2.28125H53.125V0ZM37.5 0H29.6875V2.28125H37.5V0ZM21.875 0H14.0625V2.28125H21.875V0ZM6.25 0H0V2.28125H6.25V0ZM3.125 6.84375H0V12.5469H3.125V6.84375ZM3.125 18.25H0V23.9531H3.125V18.25ZM3.125 29.6562H0V35.3594H3.125V29.6562ZM3.125 41.0625H0V46.7656H3.125V41.0625ZM3.125 52.4688H0V58.1719H3.125V52.4688ZM3.125 63.875H0V69.5781H3.125V63.875ZM10.9375 70.7188H3.125V73H10.9375V70.7188ZM26.5625 70.7188H18.75V73H26.5625V70.7188ZM42.1875 70.7188H34.375V73H42.1875V70.7188ZM57.8125 70.7188H50V73H57.8125V70.7188ZM73.4375 70.7188H65.625V73H73.4375V70.7188ZM89.0625 70.7188H81.25V73H89.0625V70.7188ZM100 69.5781H96.875V70.7188V73H100V69.5781ZM100 58.1719H96.875V63.875H100V58.1719ZM100 46.7656H96.875V52.4688H100V46.7656ZM100 35.3594H96.875V41.0625H100V35.3594ZM100 23.9531H96.875V29.6562H100V23.9531ZM100 12.5469H96.875V18.25H100V12.5469Z" fill="#999999"/>
<path d="M52.3438 25.0903H47.6562V47.9142H52.3438V25.0903Z" fill="#005045"/>
<path d="M65.6359 34.7891H34.3703V38.2109H65.6359V34.7891Z" fill="#005045"/>
</g>
<defs>
<clipPath id="clip0_207_136">
<rect width="100" height="73" fill="white"/>
</clipPath>
</defs>
</svg>
