<svg width="67" height="68" viewBox="0 0 67 68" fill="none" xmlns="http://www.w3.org/2000/svg">
<path d="M50.25 34C41.0375 34 33.5 41.65 33.5 51C33.5 60.35 41.0375 68 50.25 68C59.4625 68 67 60.35 67 51C67 41.65 59.4625 34 50.25 34ZM56.5312 53.125H52.3438V57.375C52.3438 58.65 51.5063 59.5 50.25 59.5C48.9937 59.5 48.1562 58.65 48.1562 57.375V53.125H43.9688C42.7125 53.125 41.875 52.275 41.875 51C41.875 49.725 42.7125 48.875 43.9688 48.875H48.1562V44.625C48.1562 43.35 48.9937 42.5 50.25 42.5C51.5063 42.5 52.3438 43.35 52.3438 44.625V48.875H56.5312C57.7875 48.875 58.625 49.725 58.625 51C58.625 52.275 57.7875 53.125 56.5312 53.125Z" fill="white"/>
<path d="M17.5875 46.75L20.1 41.8625C21.1469 39.7375 23.2406 38.25 25.7531 38.25H33.0812C33.2906 38.25 33.5 38.25 33.5 38.25C37.2687 33.15 43.3406 29.75 50.25 29.75C52.7625 29.75 55.0656 30.175 57.3687 31.025C56.5312 29.75 55.4844 28.475 54.4375 27.625H56.5312C57.7875 27.625 58.625 26.775 58.625 25.5C58.625 24.225 57.7875 23.375 56.5312 23.375H50.6688L48.1562 17C46.4813 13.175 42.7125 10.625 38.525 10.625H20.1C15.9125 10.625 12.1438 13.175 10.4688 17L7.74688 23.375H2.09375C0.8375 23.375 0 24.225 0 25.5C0 26.775 0.8375 27.625 2.09375 27.625H4.1875C1.675 29.5375 0 32.725 0 36.125V44.625C0 46.5375 0.8375 48.2375 2.09375 49.3V53.125C2.09375 56.7375 4.81562 59.5 8.375 59.5H12.5625C16.1219 59.5 18.8438 56.7375 18.8438 53.125V51H29.3125C29.3125 49.5125 29.5219 48.025 29.7312 46.75H17.5875ZM14.6562 40.375H8.375C7.11875 40.375 6.28125 39.525 6.28125 38.25C6.28125 36.975 7.11875 36.125 8.375 36.125H14.6562C15.9125 36.125 16.75 36.975 16.75 38.25C16.75 39.525 15.9125 40.375 14.6562 40.375ZM11.5156 25.5L14.4469 18.7C15.4938 16.3625 17.5875 14.875 20.1 14.875H38.3156C40.8281 14.875 43.1313 16.3625 44.1781 18.7L47.1094 25.5H11.5156Z" fill="white"/>
</svg>
