<svg width="86" height="81" viewBox="0 0 86 81" fill="none" xmlns="http://www.w3.org/2000/svg">
<path d="M34.2096 16.2C32.7038 16.2 31.2127 16.4793 29.8215 17.0221C28.4303 17.5648 27.1662 18.3603 26.1015 19.3632C25.0367 20.3661 24.192 21.5567 23.6158 22.867C23.0395 24.1773 22.7429 25.5817 22.7429 27C22.7429 28.4182 23.0395 29.8226 23.6158 31.1329C24.192 32.4433 25.0367 33.6338 26.1015 34.6367C27.1662 35.6396 28.4303 36.4351 29.8215 36.9779C31.2127 37.5206 32.7038 37.8 34.2096 37.8C37.2508 37.8 40.1674 36.6621 42.3178 34.6367C44.4682 32.6113 45.6763 29.8643 45.6763 27C45.6763 24.1356 44.4682 21.3886 42.3178 19.3632C40.1674 17.3378 37.2508 16.2 34.2096 16.2ZM44.4669 40.0412L34.456 54.791L24.3107 40.0517C15.0295 43.7612 8.89288 52.2229 8.59998 61.715C14.8774 68.474 24.0813 72.7628 34.372 72.7628C38.7036 72.7628 42.8239 71.9634 46.6337 70.5796C44.2761 67.3896 43.0084 63.5978 43 59.7111C43.0052 56.6884 43.7724 53.7101 45.2383 51.0211C46.7042 48.3322 48.827 46.0095 51.432 44.2441C49.3861 42.5347 47.0683 41.0858 44.4669 40.0412ZM63.4642 46.2902C62.4816 46.2902 61.5234 46.3807 60.5975 46.5591V56.9584H49.562C49.3725 57.8306 49.2764 58.7329 49.2764 59.6584C49.2764 60.5838 49.3725 61.4863 49.562 62.3583H60.5975V72.7523C61.5234 72.9308 62.4816 73.0212 63.4642 73.0212C64.4467 73.0212 65.4048 72.9308 66.3308 72.7523V62.3583H77.372C77.5616 61.4863 77.6575 60.5838 77.6575 59.6584C77.6575 58.7329 77.5616 57.8306 77.372 56.9584H66.3308V46.5591C65.4048 46.3807 64.4467 46.2902 63.4642 46.2902Z" fill="white"/>
</svg>
