<svg width="25" height="25" viewBox="0 0 25 25" fill="none" xmlns="http://www.w3.org/2000/svg">
<path d="M22.7419 9.63205H15.647V3.14951C18.1336 3.84436 20.226 5.65117 21.336 8.11038C21.5008 8.47765 21.9189 8.63452 22.2715 8.46104C22.6223 8.28848 22.7738 7.85293 22.609 7.4875C21.181 4.3279 18.3586 2.09569 15.0614 1.51895C14.855 1.48481 14.6486 1.54294 14.49 1.68136C14.3323 1.82162 14.242 2.02556 14.242 2.24149V10.3647C14.242 10.7698 14.5556 11.0974 14.9445 11.0974H22.7419C23.1308 11.0974 23.4453 10.7698 23.4453 10.3647C23.4453 9.96056 23.1308 9.63205 22.7419 9.63205ZM19.9302 13.2383H12.1974V7.5927C12.1974 7.18945 11.8829 6.86093 11.494 6.86093C11.1051 6.86093 10.7906 7.18945 10.7906 7.5927V13.971C10.7906 14.3761 11.1051 14.7027 11.494 14.7027H19.1958C18.8405 18.8036 15.5221 22.0259 11.494 22.0259C7.23032 22.0259 3.76125 18.4123 3.76125 13.971C3.76125 9.5287 7.23032 5.91508 11.494 5.91508C11.8829 5.91508 12.1974 5.58657 12.1974 5.18332C12.1974 4.77822 11.8829 4.45063 11.494 4.45063C6.45519 4.45063 2.35449 8.72126 2.35449 13.971C2.35449 19.2197 6.45519 23.4904 11.494 23.4904C16.5337 23.4904 20.6327 19.2197 20.6327 13.971C20.6327 13.5659 20.3191 13.2383 19.9302 13.2383Z" fill="white"/>
</svg>
