<svg width="64" height="66" viewBox="0 0 64 66" fill="none" xmlns="http://www.w3.org/2000/svg">
<path d="M32 35.5889C31.848 35.5889 31.6976 35.5542 31.5488 35.4866L8.6944 24.9398C8.264 24.7418 7.9904 24.288 8 23.7815C8.0096 23.2815 8.3056 22.8278 8.736 22.6545L31.5936 13.2809C31.7248 13.2281 31.8608 13.2 32 13.2C32.1376 13.2 32.2752 13.2281 32.4064 13.2809L55.2624 22.6512C55.7024 22.8327 55.9904 23.2749 56 23.7782C56.0128 24.2864 55.7392 24.7418 55.3056 24.9398L32.4496 35.4915C32.3072 35.5559 32.1536 35.5889 32 35.5889ZM12.2016 23.8722L31.944 32.9835L51.7984 23.8722L32 15.7559L12.2016 23.8722Z" fill="white"/>
<path d="M8.69449 33.8085C8.11689 33.5395 7.84649 32.8119 8.09289 32.1865C8.27369 31.7328 8.68809 31.4374 9.14729 31.4374C9.30249 31.4374 9.45289 31.4721 9.59849 31.5397L31.9457 41.8506L54.4049 31.5397C54.5521 31.4704 54.7025 31.4374 54.8577 31.4374C55.3153 31.4374 55.7281 31.7295 55.9073 32.1865C56.1553 32.8119 55.8849 33.5395 55.3057 33.8085L32.0001 44.5632L8.69449 33.8085Z" fill="white"/>
<path d="M8.69441 42.042C8.11521 41.7714 7.84481 41.0454 8.09281 40.4234C8.27361 39.9696 8.68801 39.6743 9.14721 39.6743C9.30241 39.6743 9.45281 39.7089 9.59841 39.7749L31.9456 50.0874L54.4048 39.7749C54.5488 39.7106 54.7024 39.6743 54.8576 39.6743C55.3152 39.6743 55.728 39.9696 55.9072 40.4234C56.1552 41.0471 55.8848 41.7747 55.3072 42.042L32 52.8L8.69441 42.042Z" fill="white"/>
</svg>
