<svg width="73" height="73" viewBox="0 0 73 73" fill="none" xmlns="http://www.w3.org/2000/svg">
<path fill-rule="evenodd" clip-rule="evenodd" d="M59.063 34.1534C62.5859 34.1534 65.4374 37.005 65.4374 40.5279C65.4374 44.0507 62.5859 46.9023 59.063 46.9023C55.5401 46.9023 52.6886 44.0507 52.6886 40.5279C52.6886 37.005 55.5401 34.1534 59.063 34.1534ZM46.9617 29.0622C46.6112 29.8167 46.332 30.6603 46.1181 31.5751C45.6309 33.1019 46.3498 33.4227 48.0132 32.7989C49.237 32.0682 50.4608 31.3316 51.6846 30.6008C52.3084 30.1612 52.6054 29.7276 52.5044 29.2998C52.3024 28.4562 50.6746 28.0166 49.338 27.7552C47.6389 27.4166 47.7577 27.3453 46.9617 29.0622ZM14.1746 37.5634C15.8084 37.5634 17.1391 38.8882 17.1391 40.5279C17.1391 42.1616 15.8143 43.4923 14.1746 43.4923C12.5409 43.4923 11.2102 42.1675 11.2102 40.5279C11.2102 38.8882 12.535 37.5634 14.1746 37.5634ZM59.063 37.5634C60.6967 37.5634 62.0274 38.8882 62.0274 40.5279C62.0274 42.1616 60.7026 43.4923 59.063 43.4923C57.4293 43.4923 56.0986 42.1675 56.0986 40.5279C56.0986 38.8882 57.4233 37.5634 59.063 37.5634ZM27.4106 33.5178C29.0562 31.7534 30.9573 30.6068 33.1554 29.5018C37.9674 27.078 40.914 27.375 46.023 27.375L44.3062 31.8306C43.5873 32.7811 42.7734 33.4524 41.5378 33.5178H27.4106ZM14.1746 34.1534C17.6975 34.1534 20.5491 37.005 20.5491 40.5279C20.5491 44.0507 17.6975 46.9023 14.1746 46.9023C10.6518 46.9023 7.80021 44.0507 7.80021 40.5279C7.80021 37.005 10.6518 34.1534 14.1746 34.1534ZM24.2502 32.2108C26.3413 30.9098 28.6166 29.7454 31.1355 28.7533C38.805 25.7294 44.6685 25.1888 52.7123 27.6245C55.1362 28.5453 57.56 29.4662 59.9838 30.0365C62.3779 30.6068 72.7446 31.1533 73 32.894L70.4395 35.9535C71.3722 36.7614 72.1327 37.7535 72.4119 39.3041C72.3346 40.2605 72.0732 41.0625 71.6217 41.7041C70.8554 42.8032 68.6098 43.9378 67.3979 43.2903C67.0117 43.0824 66.7919 42.6665 66.7979 41.9596C66.8335 27.7612 49.6944 29.3771 50.9836 43.6349H21.0778C26.6146 29.3533 2.99414 29.2998 7.18831 43.1418C5.71501 44.7339 2.23966 42.3338 0 37.2307C0.611898 36.6248 1.2832 36.0485 2.03174 35.5139C1.99609 35.4841 2.06738 35.6267 1.94263 35.4129C1.81787 35.199 2.24561 34.3019 3.12484 33.7851C7.73486 31.082 18.85 31.1533 24.2502 32.2108Z" fill="white"/>
</svg>
