<svg width="30" height="30" viewBox="0 0 30 30" fill="none" xmlns="http://www.w3.org/2000/svg">
<path d="M27.3253 8.55548H8.11738C7.07535 8.55548 6.22761 9.40333 6.22761 10.4454V11.3327C6.22761 11.3648 6.22972 11.3966 6.23242 11.428H5.2723C4.23027 11.428 3.38242 12.2757 3.38242 13.3179V14.1177H2.50597C1.46394 14.1177 0.616089 14.9655 0.616089 16.0074V25.5596C0.616089 26.6018 1.46394 27.4495 2.50597 27.4495H21.7139C22.7562 27.4495 23.6039 26.6018 23.6039 25.5596V24.7585C23.6117 24.7588 23.6195 24.7597 23.6275 24.7597H24.48C25.5223 24.7597 26.3699 23.912 26.3699 22.8699V21.8819C26.4038 21.885 26.4381 21.8872 26.4727 21.8872H27.3252C28.3674 21.8872 29.2151 21.0393 29.2151 19.9973V10.4454C29.2152 9.40333 28.3674 8.55548 27.3253 8.55548Z" fill="white"/>
<path d="M24.48 12.5392H5.27212C4.84204 12.5392 4.49341 12.8878 4.49341 13.318V14.2052H21.6027C22.719 14.2052 23.6273 15.1134 23.6273 16.2298V23.6487H24.48C24.91 23.6487 25.2588 23.3 25.2588 22.87V13.3179C25.2588 12.8878 24.91 12.5392 24.48 12.5392Z" fill="#464646"/>
<path d="M12.1098 23.6611C13.699 23.6611 14.9873 22.3728 14.9873 20.7837C14.9873 19.1945 13.699 17.9062 12.1098 17.9062C10.5207 17.9062 9.23242 19.1945 9.23242 20.7837C9.23242 22.3728 10.5207 23.6611 12.1098 23.6611Z" fill="#464646"/>
<path d="M21.7137 15.2289H2.50576C2.07568 15.2289 1.72705 15.5775 1.72705 16.0076V25.56C1.72705 25.9899 2.07568 26.3387 2.50576 26.3387H21.7137C22.1438 26.3387 22.4926 25.9899 22.4926 25.56V16.0076C22.4927 15.5775 22.1438 15.2289 21.7137 15.2289ZM17.9145 24.7808H6.02959C5.98143 23.1812 4.81471 21.8633 3.28447 21.5826V19.9846C4.81471 19.7038 5.98143 18.3858 6.02959 16.7863H17.9145C18.0414 18.4355 19.312 19.7635 20.935 19.9786V21.5882C19.312 21.8038 18.0414 23.1318 17.9145 24.7808Z" fill="#464646"/>
<path d="M27.3253 9.66669H8.11733C7.68737 9.66669 7.33862 10.0153 7.33862 10.4454V11.3327H24.4479C25.5642 11.3327 26.4724 12.2409 26.4724 13.3574V20.7762H27.3251C27.7553 20.7762 28.1039 20.4274 28.1039 19.9974V10.4454C28.1039 10.0152 27.7556 9.66669 27.3253 9.66669Z" fill="#464646"/>
</svg>
