<svg width="12" height="12" viewBox="0 0 12 12" fill="none" xmlns="http://www.w3.org/2000/svg">
<g clip-path="url(#clip0_826_222)">
<path d="M6.32238 11.8903C5.98471 11.8901 5.64761 11.8626 5.31438 11.808C3.6845 11.5405 2.2274 10.6371 1.26313 9.2961C0.298853 7.95512 -0.093758 6.28623 0.171525 4.65599C0.319972 3.72792 0.677743 2.84581 1.21772 2.07654C1.7577 1.30727 2.46571 0.671008 3.2881 0.215991C3.42684 0.138468 3.58493 0.102426 3.74357 0.112151C3.90221 0.121876 4.05472 0.176959 4.18295 0.270849C4.31403 0.360535 4.41622 0.48638 4.47709 0.633076C4.53796 0.779772 4.55489 0.940995 4.52581 1.09713L4.0801 1.06285L4.50181 1.13828C4.26389 2.40033 4.48622 3.70586 5.12848 4.81801C5.77073 5.93017 6.79036 6.77527 8.00238 7.19999C8.93577 7.52392 9.9399 7.58675 10.9064 7.38171C11.0593 7.35169 11.2176 7.36499 11.3634 7.42011C11.5091 7.47523 11.6366 7.56997 11.7314 7.69366C11.8262 7.81735 11.8846 7.96506 11.9 8.12015C11.9154 8.27524 11.8871 8.43153 11.8184 8.57142C11.2896 9.57119 10.4987 10.4083 9.53056 10.9929C8.56239 11.5775 7.45338 11.8878 6.32238 11.8903ZM3.65838 0.990849C3.0026 1.36269 2.43241 1.86838 1.98488 2.47505C1.53736 3.08172 1.22251 3.77578 1.06083 4.5121C0.899138 5.24843 0.894222 6.01055 1.0464 6.7489C1.19857 7.48725 1.50443 8.18532 1.9441 8.79771C2.47402 9.53845 3.18366 10.1322 4.00627 10.5232C4.82888 10.9141 5.73742 11.0893 6.64642 11.0324C7.55542 10.9755 8.435 10.6883 9.20242 10.1978C9.96983 9.70728 10.5999 9.02963 11.0332 8.22856C9.93044 8.45025 8.78853 8.37452 7.72467 8.00913C6.32094 7.51695 5.13951 6.53897 4.39378 5.25188C3.64806 3.96479 3.38722 2.45344 3.65838 0.990849Z" fill="white"/>
</g>
<defs>
<clipPath id="clip0_826_222">
<rect width="12" height="12" fill="white"/>
</clipPath>
</defs>
</svg>
