<svg width="47" height="33" viewBox="0 0 47 33" fill="none" xmlns="http://www.w3.org/2000/svg">
<path d="M41.8525 20.9354V20.9158C37.8898 23.1532 31.2845 24.5669 23.4931 24.5669C16.6863 24.5669 10.7854 23.4878 6.76043 21.7232C6.18918 21.4693 5.65244 21.2004 5.15582 20.916V20.9275C5.14884 20.9235 5.14095 20.9198 5.13379 20.9158V26.8482C5.13379 30.2401 13.3695 33 23.4932 33C33.6168 33 41.8525 30.2401 41.8525 26.8482V23.2074L41.8663 20.9281C41.8617 20.9307 41.8569 20.9329 41.8525 20.9354Z" fill="white"/>
<path d="M23.4929 21.9676C33.6166 21.9676 41.8523 19.2077 41.8523 15.8159V15.4815V13.0111V11.9363L41.8661 11.2636C41.8616 11.2662 41.8567 11.2684 41.8523 11.2709V11.2515C37.8896 13.489 31.2844 14.9027 23.4929 14.9027C16.6892 14.9027 10.7905 13.8244 6.7656 12.0611C6.19242 11.8064 5.65385 11.5367 5.15558 11.2515V11.2632C5.1486 11.2592 5.14071 11.2555 5.13354 11.2515V13.011V15.4815V15.8158C5.13354 19.2078 13.3693 21.9676 23.4929 21.9676Z" fill="white"/>
<path d="M23.493 12.3035C33.6166 12.3035 41.8524 9.54364 41.8524 6.15179C41.8524 6.05466 41.8223 5.96011 41.8091 5.86414C41.7323 5.31377 41.4562 4.78068 40.9739 4.27717C38.6011 1.7994 31.6654 0 23.493 0C15.3206 0 8.3849 1.7994 6.01232 4.27711C5.52983 4.78062 5.25371 5.31371 5.17715 5.86407C5.16365 5.95998 5.13354 6.0546 5.13354 6.15173C5.13364 9.54357 13.3694 12.3035 23.493 12.3035Z" fill="white"/>
</svg>
