<svg width="21" height="25" viewBox="0 0 21 25" fill="none" xmlns="http://www.w3.org/2000/svg">
<path fill-rule="evenodd" clip-rule="evenodd" d="M5.96059 1.67239C6.42443 1.38251 6.97779 1.04163 7.99992 1.04163C9.022 1.04163 9.57542 1.38248 10.0393 1.67236L10.0525 1.68066C10.4155 1.90757 10.6965 2.0832 11.3333 2.08322C12.3642 2.08327 12.9748 1.60278 13.1783 1.41154C13.4953 1.11383 13.8697 1.13894 14.1282 1.2884C14.39 1.43978 14.6666 1.80099 14.6666 2.33483V13.5416H17.1666C18.5468 13.5416 19.6666 14.939 19.6666 16.6656V19.7916C19.6666 20.7552 19.4715 21.547 19.136 22.1761C18.804 22.7986 18.3673 23.2006 17.9559 23.4577C17.5478 23.7128 17.1498 23.8351 16.8608 23.8953C16.6873 23.9314 16.5096 23.9587 16.3333 23.9583H4.66659C3.89577 23.9583 3.26225 23.7144 2.75902 23.2951C2.26101 22.8801 1.93941 22.3341 1.73373 21.82C1.52969 21.3099 1.43181 20.8124 1.38365 20.4512C1.35924 20.2681 1.34672 20.1133 1.34025 20.0002C1.33487 19.9059 1.33328 19.8501 1.33325 19.7916V2.33481C1.33325 1.80099 1.60979 1.43978 1.87164 1.2884C2.13015 1.13893 2.50459 1.11382 2.82149 1.41151C3.02508 1.60275 3.63566 2.08322 4.66659 2.08322C5.30338 2.08322 5.58432 1.90761 5.94732 1.68069L5.96059 1.67239ZM3.00269 19.7916L2.99992 3.83716C3.45007 4.0268 4.00602 4.16655 4.66659 4.16655C5.68872 4.16655 6.24208 3.82568 6.70591 3.5358L6.71919 3.5275C7.08219 3.30058 7.36313 3.12496 7.99992 3.12496C8.63673 3.12496 8.91767 3.30057 9.28067 3.52749L9.29392 3.53578C9.75775 3.82565 10.3111 4.16652 11.3333 4.16655C11.9938 4.16658 12.5498 4.02684 12.9999 3.83718V19.7916C12.9999 20.6073 13.1398 21.3 13.3862 21.875H4.66659C4.1874 21.875 3.88342 21.7282 3.68353 21.5616C3.47841 21.3907 3.33126 21.1554 3.22444 20.8883C3.11599 20.6171 3.05761 20.3334 3.02764 20.1087C3.01356 20.003 3.00502 19.8983 3.00269 19.7916ZM16.5869 21.8403C16.7667 21.8029 16.9937 21.7299 17.2106 21.5943C17.4243 21.4608 17.6125 21.2768 17.7493 21.0205C17.8825 20.7706 17.9999 20.3906 17.9999 19.7916V16.6656C17.9999 16.091 17.6273 15.625 17.1666 15.625H14.6666V19.7916C14.6666 20.3906 14.784 20.7706 14.9173 21.0205C15.054 21.2768 15.2423 21.4608 15.4559 21.5943C15.6728 21.7299 15.8998 21.8029 16.0797 21.8403C16.1676 21.8586 16.239 21.8674 16.2852 21.8715C16.3857 21.8805 16.488 21.8609 16.5869 21.8403Z" fill="white"/>
<path d="M4.66675 8.33329C4.66675 7.758 5.03985 7.29163 5.50008 7.29163H10.5001C10.9603 7.29163 11.3334 7.758 11.3334 8.33329C11.3334 8.90859 10.9603 9.37496 10.5001 9.37496H5.50008C5.03985 9.37496 4.66675 8.90859 4.66675 8.33329Z" fill="white"/>
<path d="M4.66675 12.5C4.66675 11.9247 5.03985 11.4584 5.50008 11.4584H10.5001C10.9603 11.4584 11.3334 11.9247 11.3334 12.5C11.3334 13.0754 10.9603 13.5417 10.5001 13.5417H5.50008C5.03985 13.5417 4.66675 13.0754 4.66675 12.5Z" fill="white"/>
<path d="M4.66675 16.6667C4.66675 16.0914 5.03985 15.625 5.50008 15.625H10.5001C10.9603 15.625 11.3334 16.0914 11.3334 16.6667C11.3334 17.242 10.9603 17.7083 10.5001 17.7083H5.50008C5.03985 17.7083 4.66675 17.242 4.66675 16.6667Z" fill="white"/>
</svg>
