<svg width="43" height="48" viewBox="0 0 43 48" fill="none" xmlns="http://www.w3.org/2000/svg">
<g filter="url(#filter0_d_47_6)">
<path d="M21.3391 22.5307C24.1248 22.5307 30.6743 19.2136 30.6743 11.2652C30.6743 10.1567 30.6469 9.0858 30.5546 8.07388C30.403 6.08214 29.9907 4.31697 28.964 2.96412C27.6476 1.12377 25.3442 0 21.3391 0C17.3337 0 15.0302 1.12389 13.7138 2.96458C12.6878 4.31663 12.2755 6.08054 12.1238 8.07091C12.0312 9.08374 12.0038 10.1556 12.0038 11.2654C12.0038 19.2136 18.5534 22.5307 21.3391 22.5307ZM24.3862 4.12708C24.1143 4.80699 23.9781 5.147 23.7061 5.82679C21.9499 5.33586 20.728 5.33586 18.9719 5.82679C18.6998 5.147 18.5638 4.80699 18.2917 4.12708C20.4878 3.46923 22.1902 3.46934 24.3862 4.12708ZM13.3926 9.54155C13.4999 9.77393 13.9568 10.6694 14.6644 10.7534C15.4773 10.8499 16.8268 7.90456 21.339 7.89736C25.8511 7.90456 27.2006 10.8499 28.0135 10.7534C28.721 10.6694 29.178 9.77382 29.2853 9.54155C29.3072 10.1121 30.5546 10.1776 30.5546 10.7534C30.5546 14.4692 28.8498 17.6409 27.3953 18.9761C25.713 21.2339 22.2595 22.3053 21.339 22.3053C20.4184 22.3053 17.4518 20.9916 15.6191 19.309C14.1646 17.9738 12.2545 14.2055 12.2545 10.3204C11.4828 10.3204 13.3707 10.112 13.3926 9.54155Z" fill="white"/>
<path d="M38.6701 34.0841C38.1934 31.1518 37.2124 27.3748 35.2445 26.0326C33.9007 25.1158 29.212 22.6373 27.2099 21.5789L27.1753 21.5606C26.9464 21.4396 26.6669 21.4638 26.4629 21.6224C25.4141 22.4371 24.2651 22.9862 23.0481 23.2544C22.8332 23.3018 22.6565 23.4529 22.5785 23.6566L21.3393 26.8889L20.1 23.6566C20.0218 23.4529 19.8453 23.3018 19.6303 23.2544C18.4133 22.9862 17.2644 22.4371 16.2156 21.6224C16.0113 21.4638 15.732 21.4395 15.5031 21.5606C13.5247 22.6066 8.77883 25.1356 7.43986 26.0286C5.17448 27.5387 4.18388 33.0038 4.00825 34.0841C3.99093 34.1912 4.00097 34.3008 4.03758 34.4031C4.11864 34.6295 6.19776 39.9497 21.3393 39.9497C36.4808 39.9497 38.5599 34.6295 38.641 34.4031C38.6774 34.3008 38.6875 34.1911 38.6701 34.0841Z" fill="white"/>
</g>
<defs>
<filter id="filter0_d_47_6" x="0" y="0" width="42.6783" height="47.9497" filterUnits="userSpaceOnUse" color-interpolation-filters="sRGB">
<feFlood flood-opacity="0" result="BackgroundImageFix"/>
<feColorMatrix in="SourceAlpha" type="matrix" values="0 0 0 0 0 0 0 0 0 0 0 0 0 0 0 0 0 0 127 0" result="hardAlpha"/>
<feOffset dy="4"/>
<feGaussianBlur stdDeviation="2"/>
<feComposite in2="hardAlpha" operator="out"/>
<feColorMatrix type="matrix" values="0 0 0 0 0 0 0 0 0 0 0 0 0 0 0 0 0 0 0.25 0"/>
<feBlend mode="normal" in2="BackgroundImageFix" result="effect1_dropShadow_47_6"/>
<feBlend mode="normal" in="SourceGraphic" in2="effect1_dropShadow_47_6" result="shape"/>
</filter>
</defs>
</svg>
