<svg width="76" height="96" viewBox="0 0 76 96" fill="none" xmlns="http://www.w3.org/2000/svg">
<path d="M53.9356 30.9677H4.90332V61.9355H53.9356V30.9677ZM26.9678 58.8387H7.35493V52.6452H26.9678V58.8387ZM26.9678 49.5484H7.35493V43.3548H26.9678V49.5484ZM26.9678 40.2581H7.35493V34.0645H26.9678V40.2581ZM39.2259 58.8387H29.4194V52.6452H39.2259V58.8387ZM39.2259 49.5484H29.4194V43.3548H39.2259V49.5484ZM39.2259 40.2581H29.4194V34.0645H39.2259V40.2581ZM51.484 58.8387H41.6775V52.6452H51.484V58.8387ZM51.484 49.5484H41.6775V43.3548H51.484V49.5484ZM51.484 40.2581H41.6775V34.0645H51.484V40.2581Z" fill="white"/>
<path d="M29.4194 15.4839H4.90332V24.7742H29.4194V15.4839ZM26.9678 21.6774H7.35493V18.5807H26.9678V21.6774Z" fill="white"/>
<path d="M58.8387 27.871V13.2945L48.3139 0H0V96H36.7742H38H57.6129H68.6452H76V27.871H58.8387ZM58.8387 49.6552C63.6684 50.4217 67.4194 55.6305 67.4194 61.9355C67.4194 65.7523 66.0391 69.2377 63.7419 71.5587V65.0323H58.8387V49.6552ZM58.8387 68.129H61.2903V74.3226H34.3226V68.129H36.7742V71.2258H39.2258V68.129H41.6774V71.2258H44.129V68.129H46.5806V71.2258H49.0323V68.129H51.4839V71.2258H53.9355V68.129H56.3871V71.2258H58.8387V68.129ZM49.0323 5.28619L54.6538 12.3871H49.0323V5.28619ZM36.7742 92.9032H2.45161V3.09677H46.5806V15.4839H56.3871V65.0323H31.871V74.3226H29.4194V86.7097H36.7742V92.9032ZM36.7742 83.6129H31.871V77.4193H34.3226V80.5161H36.7742V77.4193H39.2258V80.5161H41.6774V77.4193H44.129V80.5161H46.5806V77.4193H49.0323V80.5161H51.4839V77.4193H53.9355V80.5161H56.3871V77.4193H58.8387V83.6129H36.7742ZM66.1936 92.9032H57.6129H39.2258V86.7097H41.6774V89.8064H44.129V86.7097H46.5806V89.8064H49.0323V86.7097H51.4839V89.8064H53.9355V86.7097H56.3871V89.8064H58.8387V86.7097H61.2903V89.8064H63.7419V86.7097H66.1936V92.9032ZM73.5484 92.9032H68.6452V83.6129H61.2903V77.4193H63.7419V75.2888C67.5309 72.5187 69.871 67.5066 69.871 61.9355C69.871 53.921 65.0241 47.3094 58.8387 46.5306V30.9677H73.5484V92.9032Z" fill="white"/>
<path d="M26.9678 65.0323H4.90332V68.129H26.9678V65.0323Z" fill="white"/>
<path d="M49.0321 21.6774H31.8708V24.7742H49.0321V21.6774Z" fill="white"/>
<path d="M53.9355 21.6774H51.4839V24.7742H53.9355V21.6774Z" fill="white"/>
</svg>
