<svg width="73" height="90" viewBox="0 0 73 90" fill="none" xmlns="http://www.w3.org/2000/svg">
<g clip-path="url(#clip0_474_213)">
<path d="M72.2514 0.116393C71.7964 -0.116167 71.272 0.00846315 70.9228 0.44036L66.9164 5.37984L62.9099 0.44036C62.4342 -0.146049 61.6653 -0.146049 61.1895 0.44036L57.1831 5.37984L53.1766 0.44036C52.7009 -0.146049 51.932 -0.146049 51.4562 0.44036L47.4498 5.37984L43.4433 0.44036C42.9676 -0.146049 42.1987 -0.146049 41.7229 0.44036L37.7165 5.37984L33.71 0.44036C33.3608 0.0114514 32.8377 -0.119155 32.3839 0.114811C31.93 0.345789 31.6332 0.893351 31.6332 1.50085C31.6332 34.0535 29.4785 52.7192 25.051 58.5002H1.2171C0.865505 58.5002 0.530872 58.6878 0.299752 59.0147C0.068631 59.3433 -0.0360219 59.7767 0.0114569 60.2056C1.64784 74.772 4.80268 89.7028 15.817 89.9999H54.7499C54.7537 89.9999 54.7585 89.9999 54.7633 89.9999C71.4144 89.8408 72.9316 22.2261 72.9998 1.50683C73.002 0.897922 72.7063 0.348953 72.2514 0.116393ZM15.8437 87C8.77864 86.811 4.79156 79.1595 2.62236 61.5003H25.5465C25.5478 61.4987 25.5513 61.4987 25.5538 61.5003H39.0939C40.3178 71.8097 42.3959 82.0786 47.5752 87H15.8437ZM54.7766 87C54.7753 87 54.7742 87 54.7729 87C47.4875 86.802 43.4751 78.6645 41.3556 59.7948C41.2717 59.0523 40.7582 58.5004 40.15 58.5004H28.0881C31.9948 50.8519 33.911 33.6261 34.0582 5.11002L36.8564 8.5615C37.3321 9.14791 38.101 9.14791 38.5768 8.5615L42.5833 3.62202L46.5897 8.5615C47.0654 9.14791 47.8343 9.14791 48.3101 8.5615L52.3165 3.62202L56.323 8.5615C56.7987 9.14791 57.5676 9.14791 58.0434 8.5615L62.0498 3.62202L66.0563 8.5615C66.532 9.14791 67.3009 9.14791 67.7767 8.5615L70.5421 5.15203C70.1381 46.412 65.1716 86.9056 54.7766 87Z" fill="white"/>
<path d="M64.4831 15.0007H38.9334C38.2619 15.0007 37.7168 15.6727 37.7168 16.5007C37.7168 17.3286 38.2619 18.0006 38.9334 18.0006H64.4831C65.1547 18.0006 65.6998 17.3286 65.6998 16.5007C65.6998 15.6727 65.1547 15.0007 64.4831 15.0007Z" fill="white"/>
<path d="M64.4831 22.5007H38.9334C38.2619 22.5007 37.7168 23.1727 37.7168 24.0006C37.7168 24.8286 38.2619 25.5006 38.9334 25.5006H64.4831C65.1547 25.5006 65.6998 24.8286 65.6998 24.0006C65.6998 23.1727 65.1547 22.5007 64.4831 22.5007Z" fill="white"/>
<path d="M64.4831 30.0006H38.9334C38.2619 30.0006 37.7168 30.6726 37.7168 31.5005C37.7168 32.3285 38.2619 33.0005 38.9334 33.0005H64.4831C65.1547 33.0005 65.6998 32.3285 65.6998 31.5005C65.6998 30.6726 65.1547 30.0006 64.4831 30.0006Z" fill="white"/>
</g>
<defs>
<clipPath id="clip0_474_213">
<rect width="73" height="90" fill="white"/>
</clipPath>
</defs>
</svg>
