<svg width="20" height="17" viewBox="0 0 20 17" fill="none" xmlns="http://www.w3.org/2000/svg">
<mask id="mask0_826_224" style="mask-type:luminance" maskUnits="userSpaceOnUse" x="5" y="0" width="15" height="14">
<path d="M5 0H20V14H5V0Z" fill="white"/>
</mask>
<g mask="url(#mask0_826_224)">
<path d="M8.125 7.00006H5.625M19.375 7.00006H16.875M9.40625 4.11256L7.63875 2.46289M17.3612 11.5372L15.5938 9.88756M9.40625 9.88756L7.63875 11.5372M17.3612 2.46289L15.5938 4.11256" stroke="white" stroke-miterlimit="10" stroke-linecap="round"/>
<path d="M12.5 9.33341C13.163 9.33341 13.7989 9.08758 14.2678 8.65C14.7366 8.21241 15 7.61892 15 7.00008C15 6.38124 14.7366 5.78775 14.2678 5.35017C13.7989 4.91258 13.163 4.66675 12.5 4.66675C11.837 4.66675 11.2011 4.91258 10.7322 5.35017C10.2634 5.78775 10 6.38124 10 7.00008C10 7.61892 10.2634 8.21241 10.7322 8.65C11.2011 9.08758 11.837 9.33341 12.5 9.33341Z" fill="black" fill-opacity="0.16" stroke="white" stroke-miterlimit="10"/>
<path d="M12.5 11.0834V13.4167M12.5 0.583374V2.91671" stroke="white" stroke-miterlimit="10" stroke-linecap="round"/>
</g>
</svg>
