<svg width="21" height="25" viewBox="0 0 21 25" fill="none" xmlns="http://www.w3.org/2000/svg">
<path d="M10.5 0C4.90805 0 0.375 4.19727 0.375 9.375C0.375 11.593 1.43053 13.5434 2.5987 15.2344L9.8115 24.6703C9.9697 24.8773 10.2266 25 10.5 25C10.7734 25 11.0303 24.8773 11.1885 24.6703L18.4013 15.2344C19.5176 13.843 20.625 11.593 20.625 9.375C20.625 4.19727 16.092 0 10.5 0ZM17.2867 15.2344H17.2825L10.5 23.8281L3.71752 15.2344H3.7133C2.68223 13.8551 1.21875 11.6402 1.21875 9.375C1.21875 4.62891 5.37422 0.78125 10.5 0.78125C15.6258 0.78125 19.7812 4.62891 19.7812 9.375C19.7812 11.6402 18.2123 13.977 17.2867 15.2344Z" fill="#394240"/>
<path d="M10.5 5.46875C8.16998 5.46875 6.28125 7.21797 6.28125 9.375C6.28125 11.532 8.16998 13.2812 10.5 13.2812C12.83 13.2812 14.7188 11.532 14.7188 9.375C14.7188 7.21797 12.83 5.46875 10.5 5.46875ZM10.5 12.5C8.63616 12.5 7.125 11.1008 7.125 9.375C7.125 7.64922 8.63616 6.25 10.5 6.25C12.3638 6.25 13.875 7.64922 13.875 9.375C13.875 11.1008 12.3638 12.5 10.5 12.5Z" fill="#394240"/>
<path d="M10.5 3.90625C7.23806 3.90625 4.59375 6.35469 4.59375 9.375C4.59375 12.3953 7.23806 14.8438 10.5 14.8438C13.7619 14.8438 16.4062 12.3953 16.4062 9.375C16.4062 6.35469 13.7619 3.90625 10.5 3.90625ZM10.5 14.0625C7.70423 14.0625 5.4375 11.9637 5.4375 9.375C5.4375 6.78633 7.70423 4.6875 10.5 4.6875C13.2958 4.6875 15.5625 6.78633 15.5625 9.375C15.5625 11.9637 13.2958 14.0625 10.5 14.0625Z" fill="#394240"/>
<path d="M10.5 4.6875C7.70423 4.6875 5.4375 6.78633 5.4375 9.375C5.4375 11.9637 7.70423 14.0625 10.5 14.0625C13.2958 14.0625 15.5625 11.9637 15.5625 9.375C15.5625 6.78633 13.2958 4.6875 10.5 4.6875ZM10.5 13.2812C8.17041 13.2812 6.28125 11.5324 6.28125 9.375C6.28125 7.21758 8.17041 5.46875 10.5 5.46875C12.8296 5.46875 14.7188 7.21758 14.7188 9.375C14.7188 11.5324 12.8296 13.2812 10.5 13.2812Z" fill="#F76D57"/>
<path d="M10.5 0.78125C5.37422 0.78125 1.21875 4.62891 1.21875 9.375C1.21875 11.6402 2.68223 13.8551 3.7133 15.2344H3.71752L10.5 23.8281L17.2825 15.2344H17.2867C18.2123 13.977 19.7813 11.6402 19.7813 9.375C19.7813 4.62891 15.6258 0.78125 10.5 0.78125ZM10.5 14.8438C7.23806 14.8438 4.59375 12.3953 4.59375 9.375C4.59375 6.35469 7.23806 3.90625 10.5 3.90625C13.7619 3.90625 16.4063 6.35469 16.4063 9.375C16.4063 12.3953 13.7619 14.8438 10.5 14.8438Z" fill="#F76D57"/>
<path opacity="0.2" d="M10.5 4.6875C7.70423 4.6875 5.4375 6.78633 5.4375 9.375C5.4375 11.9637 7.70423 14.0625 10.5 14.0625C13.2958 14.0625 15.5625 11.9637 15.5625 9.375C15.5625 6.78633 13.2958 4.6875 10.5 4.6875ZM10.5 13.2812C8.17041 13.2812 6.28125 11.5324 6.28125 9.375C6.28125 7.21758 8.17041 5.46875 10.5 5.46875C12.8296 5.46875 14.7188 7.21758 14.7188 9.375C14.7188 11.5324 12.8296 13.2812 10.5 13.2812Z" fill="#231F20"/>
</svg>
