<svg width="27" height="31" viewBox="0 0 27 31" fill="none" xmlns="http://www.w3.org/2000/svg">
<path d="M18 2.58337H9C8.40327 2.58337 7.83097 2.85554 7.40901 3.34002C6.98705 3.82448 6.75 4.48157 6.75 5.16671H16.875V11.625H22.5V25.8334H6.75C6.75 26.5185 6.98705 27.1755 7.40901 27.66C7.83097 28.1446 8.40327 28.4167 9 28.4167H22.5C23.0967 28.4167 23.669 28.1446 24.091 27.66C24.513 27.1755 24.75 26.5185 24.75 25.8334V10.3334L18 2.58337Z" fill="white"/>
<path d="M12.7401 18.714L14.2769 20.4367V21.305H2.25V20.4367L3.77471 18.714V14.4146C3.69937 13.199 3.99557 11.9913 4.6123 10.9995C5.22902 10.0077 6.12766 9.29376 7.15347 8.98076V8.39256C7.15347 8.05085 7.2717 7.72313 7.48215 7.4815C7.6926 7.23987 7.97804 7.10413 8.27566 7.10413C8.57328 7.10413 8.85871 7.23987 9.06916 7.4815C9.27962 7.72313 9.39784 8.05085 9.39784 8.39256V8.98076C10.4156 9.30429 11.3046 10.0222 11.9137 11.0127C12.5229 12.0031 12.8149 13.2051 12.7401 14.4146V18.714Z" fill="#289168"/>
<path d="M9.29997 23.3913C9.0186 23.7143 8.63699 23.8958 8.23908 23.8958C7.84118 23.8958 7.45957 23.7143 7.17819 23.3913C6.89683 23.0682 6.73877 22.6301 6.73877 22.1732H9.73939C9.73939 22.6301 9.58133 23.0682 9.29997 23.3913Z" fill="#289168"/>
</svg>
