<svg xmlns="http://www.w3.org/2000/svg" xmlns:xlink="http://www.w3.org/1999/xlink" version="1.1" x="0px" y="0px" viewBox="0 0 100 125" enable-background="new 0 0 100 100" xml:space="preserve"><g><path d="M10.9,90.1c-0.9,0-1.7-0.8-1.7-1.7V73.1c2.5-0.2,4.8-1.2,6.6-3l8.6-8.6v26.9c0,0.9-0.8,1.7-1.7,1.7H10.9z M43.9,90.1   c0.9,0,1.7-0.8,1.7-1.7v-16c-2.7-0.1-5.2-1.1-7.1-3l-8.1-8.1v27.1c0,0.9,0.8,1.7,1.7,1.7H43.9z M65,90.1c0.9,0,1.7-0.8,1.7-1.7   V55.8L53.1,69.4c-0.5,0.5-1.1,1-1.7,1.4v17.6c0,0.9,0.8,1.7,1.7,1.7H65z M86.1,90.1c0.9,0,1.7-0.8,1.7-1.7V36.9   c-0.4-0.3-0.7-0.6-0.9-0.8l-0.2-0.2L72.6,49.9v38.5c0,0.9,0.8,1.7,1.7,1.7H86.1z M30.8,38.5c-0.9-0.9-2.1-1.4-3.4-1.4   c-1.3,0-2.5,0.5-3.4,1.4L4.2,58.4c-1.9,1.9-1.9,4.9,0,6.7l0.9,0.9C6,67,7.2,67.5,8.5,67.5c1.3,0,2.5-0.5,3.4-1.4l15.6-15.6l15,15   c0.9,0.9,2.1,1.4,3.4,1.4c1.3,0,2.5-0.5,3.4-1.4l37.5-37.5c0.1,0.1,0.2,0.2,0.3,0.3c0.9,0.9,1.9,1.9,2.8,2.8l1.2,1.2   c0.5,0.5,1.2,1.2,2.3,1.2c0.4,0,0.9-0.1,1.4-0.4c0.3-0.2,0.6-0.4,0.8-0.6c0.8-0.8,1-1.9,1-2.7c0.2-3.6,0.3-7.1,0.5-10.7l0.3-5.4   c0.1-1.2-0.2-2-0.8-2.6c-0.6-0.6-1.4-0.9-2.5-0.9c-0.1,0-0.2,0-0.3,0c-5.5,0.3-11,0.5-16.5,0.8c-0.7,0-1.7,0.1-2.5,0.9   c-0.2,0.2-0.4,0.5-0.6,0.9c-0.8,1.8,0.3,2.9,0.9,3.5l1.4,1.4c1,1,1.9,1.9,2.9,2.9L45.8,53.5L30.8,38.5z"/></g><text x="0" y="115" fill="#000000" font-size="5px" font-weight="bold" font-family="'Helvetica Neue', Helvetica, Arial-Unicode, Arial, Sans-serif">Created by Gregor Cresnar</text><text x="0" y="120" fill="#000000" font-size="5px" font-weight="bold" font-family="'Helvetica Neue', Helvetica, Arial-Unicode, Arial, Sans-serif">from the Noun Project</text></svg>