<svg width="26" height="25" viewBox="0 0 26 25" fill="none" xmlns="http://www.w3.org/2000/svg">
<g clip-path="url(#clip0_309_160)">
<path d="M25.7335 0.0322959C25.5715 -0.0323041 25.3847 0.00231527 25.2603 0.122287L23.8334 1.49436L22.4064 0.122287C22.2374 -0.0402143 21.9627 -0.0402143 21.7937 0.122287L20.3667 1.49436L18.9398 0.122287C18.7708 -0.0402143 18.496 -0.0402143 18.327 0.122287L16.9001 1.49436L15.4731 0.122287C15.3041 -0.0402143 15.0294 -0.0402143 14.8604 0.122287L13.4334 1.49436L12.0065 0.122287C11.8821 0.00314535 11.6958 -0.0331342 11.5341 0.0318565C11.3725 0.096017 11.2668 0.248118 11.2668 0.416869C11.2668 9.45926 10.4994 14.6442 8.92244 16.25H0.433646C0.308419 16.25 0.189235 16.3021 0.106918 16.3929C0.0246011 16.4842 -0.0126725 16.6046 0.00423772 16.7238C0.587058 20.77 1.7107 24.9174 5.63363 24.9999H19.5001C19.5015 24.9999 19.5032 24.9999 19.5049 24.9999C25.4354 24.9557 25.9758 6.17388 26.0001 0.418529C26.0009 0.249387 25.8956 0.0968959 25.7335 0.0322959ZM16.3745 24.1666H5.64312C3.16925 24.115 1.75442 22.0596 0.973556 17.3283C0.952736 17.2017 1.05501 17.0833 1.18846 17.0833H9.09886C9.09931 17.0829 9.10058 17.0829 9.10145 17.0833H13.7381C13.8451 17.0833 13.9352 17.1583 13.9512 17.26C14.3551 19.8354 15.0185 22.377 16.5239 23.8116C16.6618 23.9433 16.5686 24.1666 16.3745 24.1666ZM22.9667 9.16682H13.8668C13.6277 9.16682 13.4335 8.98015 13.4335 8.75017C13.4335 8.52019 13.6277 8.33352 13.8668 8.33352H22.9667C23.2059 8.33352 23.4001 8.52019 23.4001 8.75017C23.4001 8.98015 23.2059 9.16682 22.9667 9.16682ZM22.9667 7.08351H13.8668C13.6277 7.08351 13.4335 6.89684 13.4335 6.66686C13.4335 6.43687 13.6277 6.2502 13.8668 6.2502H22.9667C23.2059 6.2502 23.4001 6.43687 23.4001 6.66686C23.4001 6.89684 23.2059 7.08351 22.9667 7.08351ZM22.9667 5.0002H13.8668C13.6277 5.0002 13.4335 4.81353 13.4335 4.58354C13.4335 4.35356 13.6277 4.16689 13.8668 4.16689H22.9667C23.2059 4.16689 23.4001 4.35356 23.4001 4.58354C23.4001 4.81353 23.2059 5.0002 22.9667 5.0002Z" fill="white"/>
</g>
<defs>
<clipPath id="clip0_309_160">
<rect width="26" height="25" fill="white"/>
</clipPath>
</defs>
</svg>
