<svg width="84" height="97" viewBox="0 0 84 97" fill="none" xmlns="http://www.w3.org/2000/svg">
<g clip-path="url(#clip0_789_48)">
<path d="M72.3674 0H18.9677V17.3333C17.3379 16.2381 15.4858 15.6452 13.5484 15.6452C7.57219 15.6452 2.70968 21.2602 2.70968 28.1613C2.70968 35.0624 7.57219 40.6774 13.5484 40.6774C15.4858 40.6774 17.3379 40.0845 18.9677 38.9893V40.6774H13.5484H0V97H18.9677H20.3226H84V13.4329L72.3674 0ZM18.9677 75.8165C17.4734 77.3685 15.5725 78.2258 13.5484 78.2258C9.06523 78.2258 5.41935 74.0157 5.41935 68.8387C5.41935 63.6617 9.06523 59.4516 13.5484 59.4516C15.5725 59.4516 17.4734 60.309 18.9677 61.861V75.8165ZM18.9677 58.0107C17.3379 56.9155 15.4858 56.3226 13.5484 56.3226C7.57219 56.3226 2.70968 61.9376 2.70968 68.8387C2.70968 75.7398 7.57219 81.3548 13.5484 81.3548C15.4858 81.3548 17.3379 80.7619 18.9677 79.6667V93.871H2.70968V68.8387V43.8065H18.9677V58.0107ZM18.9677 35.139C17.4734 36.691 15.5725 37.5484 13.5484 37.5484C9.06523 37.5484 5.41935 33.3383 5.41935 28.1613C5.41935 22.9843 9.06523 18.7742 13.5484 18.7742C15.5725 18.7742 17.4734 19.6315 18.9677 21.1835V35.139ZM73.1613 5.34126L79.3746 12.5161H73.1613V5.34126ZM81.2903 93.871H21.6774V3.12903H70.4516V15.6452H81.2903V93.871Z" fill="white"/>
<path d="M24.3872 70.4032H65.0324V79.7903H78.5808V70.4032V68.8387V29.7258H24.3872V70.4032ZM67.742 32.8549H75.8711V39.1129H67.742V32.8549ZM67.742 42.242H75.8711V48.5H67.742V42.242ZM67.742 51.6291H75.8711V57.8871H67.742V51.6291ZM67.742 61.0162H75.8711V67.2742H67.742V61.0162ZM67.742 70.4032H75.8711V76.6613H67.742V70.4032ZM56.9033 32.8549H65.0324V39.1129H56.9033V32.8549ZM56.9033 42.242H65.0324V48.5H56.9033V42.242ZM56.9033 51.6291H65.0324V57.8871H56.9033V51.6291ZM56.9033 61.0162H65.0324V67.2742H56.9033V61.0162ZM27.0969 32.8549H54.1937V39.1129H27.0969V32.8549ZM27.0969 42.242H54.1937V48.5H27.0969V42.242ZM27.0969 51.6291H54.1937V57.8871H27.0969V51.6291ZM27.0969 61.0162H54.1937V67.2742H27.0969V61.0162Z" fill="white"/>
<path d="M44.7098 23.4678H24.3872V26.5968H44.7098V23.4678Z" fill="white"/>
<path d="M51.4838 18.7742C54.4726 18.7742 56.9032 15.9674 56.9032 12.5161C56.9032 9.0648 54.4726 6.25806 51.4838 6.25806C48.495 6.25806 46.0645 9.0648 46.0645 12.5161C46.0645 15.9674 48.495 18.7742 51.4838 18.7742ZM51.4838 9.38709C52.9782 9.38709 54.1935 10.7905 54.1935 12.5161C54.1935 14.2418 52.9782 15.6452 51.4838 15.6452C49.9894 15.6452 48.7741 14.2418 48.7741 12.5161C48.7741 10.7905 49.9894 9.38709 51.4838 9.38709Z" fill="white"/>
<path d="M12.1936 20.3387V21.983C10.649 22.346 9.48389 23.9261 9.48389 25.8145C9.48389 27.972 11.004 29.7258 12.871 29.7258H14.2258C14.5998 29.7258 14.9032 30.0778 14.9032 30.508C14.9032 30.9383 14.5998 31.2903 14.2258 31.2903H12.871C12.497 31.2903 12.1936 30.9383 12.1936 30.508V29.7258H9.48389V30.508C9.48389 32.398 10.649 33.9766 12.1936 34.3395V35.9838H14.9032V34.3395C16.4478 33.9766 17.6129 32.3964 17.6129 30.508C17.6129 28.3506 16.0928 26.5967 14.2258 26.5967H12.871C12.497 26.5967 12.1936 26.2447 12.1936 25.8145C12.1936 25.3842 12.497 25.0322 12.871 25.0322H14.2258C14.5998 25.0322 14.9032 25.3842 14.9032 25.8145V26.5967H17.6129V25.8145C17.6129 23.9246 16.4478 22.346 14.9032 21.983V20.3387H12.1936Z" fill="white"/>
</g>
<defs>
<clipPath id="clip0_789_48">
<rect width="84" height="97" fill="white"/>
</clipPath>
</defs>
</svg>
