<svg width="30" height="31" viewBox="0 0 30 31" fill="none" xmlns="http://www.w3.org/2000/svg">
<path fill-rule="evenodd" clip-rule="evenodd" d="M17.8485 2.78002C17.3856 2.58337 16.7987 2.58337 15.625 2.58337C14.4512 2.58337 13.8644 2.58337 13.4015 2.78002C12.7842 3.04221 12.2939 3.54512 12.0382 4.1781C11.9215 4.46706 11.8758 4.8031 11.8579 5.29328C11.8317 6.01363 11.4714 6.6804 10.8627 7.04083C10.254 7.40124 9.5108 7.38778 8.88936 7.05094C8.46647 6.82172 8.15986 6.69426 7.85749 6.65344C7.19511 6.56401 6.52522 6.74808 5.9952 7.16517C5.59767 7.47799 5.30423 7.9992 4.71737 9.04162C4.13051 10.084 3.83708 10.6052 3.77168 11.1147C3.68447 11.794 3.86397 12.481 4.27068 13.0246C4.45632 13.2727 4.71721 13.4812 5.12212 13.7421C5.71738 14.1257 6.1004 14.7792 6.10036 15.5C6.10032 16.2209 5.71732 16.8742 5.12212 17.2577C4.71715 17.5188 4.45621 17.7274 4.27056 17.9755C3.86385 18.5191 3.68436 19.206 3.77156 19.8853C3.83696 20.3947 4.1304 20.916 4.71725 21.9584C5.30411 23.0007 5.59755 23.5221 5.99507 23.8348C6.5251 24.2519 7.19498 24.4359 7.85736 24.3465C8.15972 24.3057 8.46631 24.1782 8.88916 23.9491C9.51065 23.6122 10.2539 23.5988 10.8626 23.9592C11.4714 24.3197 11.8317 24.9864 11.8579 25.7069C11.8758 26.197 11.9215 26.5331 12.0382 26.822C12.2939 27.4549 12.7842 27.9579 13.4015 28.2201C13.8644 28.4167 14.4512 28.4167 15.625 28.4167C16.7987 28.4167 17.3856 28.4167 17.8485 28.2201C18.4657 27.9579 18.9561 27.4549 19.2117 26.822C19.3285 26.5331 19.3742 26.197 19.3921 25.7068C19.4184 24.9864 19.7785 24.3197 20.3872 23.9592C20.996 23.5987 21.7392 23.6122 22.3607 23.9491C22.7836 24.1782 23.0901 24.3056 23.3925 24.3464C24.0549 24.4359 24.7247 24.2519 25.2547 23.8348C25.6524 23.5219 25.9457 23.0008 26.5326 21.9582C27.1195 20.9159 27.4129 20.3947 27.4784 19.8853C27.5655 19.206 27.386 18.5189 26.9794 17.9754C26.7936 17.7273 26.5327 17.5187 26.1277 17.2577C25.5326 16.8742 25.1496 16.2208 25.1496 15.4999C25.1496 14.779 25.5326 14.1258 26.1277 13.7423C26.5329 13.4813 26.7937 13.2728 26.9795 13.0246C27.3861 12.4811 27.5656 11.7941 27.4785 11.1148C27.413 10.6053 27.1196 10.0841 26.5327 9.04171C25.9459 7.99929 25.6525 7.47808 25.2549 7.16526C24.7249 6.74817 24.055 6.5641 23.3926 6.65353C23.0902 6.69435 22.7836 6.8218 22.3609 7.05099C21.7394 7.38784 20.9961 7.40132 20.3874 7.04086C19.7786 6.68042 19.4184 6.0136 19.392 5.29321C19.3741 4.80308 19.3285 4.46705 19.2117 4.1781C18.9561 3.54512 18.4657 3.04221 17.8485 2.78002ZM15.625 19.375C17.7119 19.375 19.4035 17.6402 19.4035 15.5C19.4035 13.3599 17.7119 11.625 15.625 11.625C13.5381 11.625 11.8464 13.3599 11.8464 15.5C11.8464 17.6402 13.5381 19.375 15.625 19.375Z" fill="white"/>
</svg>
