<svg width="92" height="104" viewBox="0 0 92 104" fill="none" xmlns="http://www.w3.org/2000/svg">
<path d="M82.0332 84.9333V1.73333C82.0332 0.693333 81.4199 0 80.4999 0H11.4999C10.5799 0 9.96655 0.693333 9.96655 1.73333V102.267C9.96655 103.307 10.5799 104 11.4999 104H65.1665C65.6266 104 65.9332 103.827 66.2399 103.48L81.5732 86.1467C81.7266 85.9733 81.7266 85.8 81.8799 85.6267V85.4533C82.0332 85.28 82.0332 85.1067 82.0332 84.9333ZM13.0332 3.46667H78.9666V83.2H65.1665C64.2466 83.2 63.6332 83.8933 63.6332 84.9333V100.533H13.0332V3.46667ZM66.6999 98.1067V86.6667H76.8199L71.7599 92.3867L66.6999 98.1067Z" fill="white"/>
<path d="M20.6998 76.2667H71.2998C72.2198 76.2667 72.8332 75.5734 72.8332 74.5334V12.1334C72.8332 11.0934 72.2198 10.4 71.2998 10.4H20.6998C19.7798 10.4 19.1665 11.0934 19.1665 12.1334V74.5334C19.1665 75.5734 19.7798 76.2667 20.6998 76.2667ZM22.2332 24.2667H32.9665V72.8H22.2332C22.2332 72.8 22.2332 38.3067 22.2332 24.2667ZM36.0332 50.2667H69.7665V60.6667H36.0332V50.2667ZM36.0332 46.8V36.4H69.7665V46.8H36.0332ZM36.0332 32.9334V24.2667H69.7665V32.9334H36.0332ZM36.0332 72.8V64.1334H69.7665V72.8H36.0332ZM69.7665 20.8H36.0332V13.8667H69.7665V20.8ZM32.9665 13.8667V20.8H22.2332C22.2332 19.4134 22.2332 13.8667 22.2332 13.8667H32.9665Z" fill="white"/>
<path d="M29.8998 27.7333H25.2998V31.2H29.8998V27.7333Z" fill="white"/>
<path d="M29.8998 39.8666H25.2998V43.3333H29.8998V39.8666Z" fill="white"/>
<path d="M29.8998 53.7333H25.2998V57.2H29.8998V53.7333Z" fill="white"/>
<path d="M29.8998 65.8667H25.2998V69.3334H29.8998V65.8667Z" fill="white"/>
<path d="M34.4998 81.4667H20.6998C19.7798 81.4667 19.1665 82.16 19.1665 83.2V93.6C19.1665 94.64 19.7798 95.3333 20.6998 95.3333H34.4998C35.4198 95.3333 36.0332 94.64 36.0332 93.6V83.2C36.0332 82.16 35.4198 81.4667 34.4998 81.4667ZM32.9665 91.8667H22.2332V84.9333H32.9665V91.8667Z" fill="white"/>
<path d="M51.3666 83.2H40.6333V86.6667H51.3666V83.2Z" fill="white"/>
<path d="M55.9666 90.1333H40.6333V93.6H55.9666V90.1333Z" fill="white"/>
</svg>
