<svg width="67" height="67" viewBox="0 0 67 67" fill="none" xmlns="http://www.w3.org/2000/svg">
<g clip-path="url(#clip0_167_850)">
<path d="M67 16.75L33.2487 0L0 16.75V20.9375H4.1875V67H12.5625V29.3125H54.4375V67H62.8125V20.9375H67V16.75ZM16.75 25.125V20.9375H25.125V25.125H16.75ZM29.3125 25.125V20.9375H37.6875V25.125H29.3125ZM41.875 25.125V20.9375H50.25V25.125H41.875Z" fill="white"/>
<path d="M25.125 37.6875H20.9375V33.5H16.75V46.0625H29.3125V33.5H25.125V37.6875Z" fill="white"/>
<path d="M25.125 54.4375H20.9375V50.25H16.75V62.8125H29.3125V50.25H25.125V54.4375Z" fill="white"/>
<path d="M41.875 54.4375H37.6875V50.25H33.5V62.8125H46.0625V50.25H41.875V54.4375Z" fill="white"/>
</g>
<defs>
<clipPath id="clip0_167_850">
<rect width="67" height="67" fill="white"/>
</clipPath>
</defs>
</svg>
