<!DOCTYPE svg PUBLIC "-//W3C//DTD SVG 1.1//EN" "http://www.w3.org/Graphics/SVG/1.1/DTD/svg11.dtd">

<!-- Uploaded to: SVG Repo, www.svgrepo.com, Transformed by: SVG Repo Mixer Tools -->
<svg width="800px" height="800px" viewBox="0 0 48 48" id="svg5" version="1.1" xml:space="preserve" xmlns="http://www.w3.org/2000/svg" xmlns:svg="http://www.w3.org/2000/svg" fill="#000000">

<g id="SVGRepo_bgCarrier" stroke-width="0"/>

<g id="SVGRepo_tracerCarrier" stroke-linecap="round" stroke-linejoin="round"/>

<g id="SVGRepo_iconCarrier"> <defs id="defs2"/> <g id="layer1" transform="translate(-314.00003,-161)"> <path d="m 343.09824,176.39932 a 1,1 0 0 0 0.29297,0.70703 1,1 0 0 0 1.41406,0.002 l 7.8418,-7.82618 a 1,1 0 0 0 0.002,-1.41406 1,1 0 0 0 -1.41406,-0.002 l -7.8418,7.82617 a 1,1 0 0 0 -0.29492,0.70703 z" id="path28574" style="color:#000000;fill:#ffffff;fill-opacity:1;fill-rule:evenodd;stroke-linecap:round;stroke-linejoin:round;stroke-miterlimit:4.1;-inkscape-stroke:none"/> <path d="m 334.17385,167.41797 a 1,1 0 0 0 -0.70703,0.29297 1,1 0 0 0 -0.002,1.41406 l 7.82618,7.8418 a 1,1 0 0 0 1.41406,0.002 1,1 0 0 0 0.002,-1.41406 l -7.82617,-7.8418 a 1,1 0 0 0 -0.70703,-0.29492 z" id="path28572" style="color:#000000;fill:#ffffff;fill-opacity:1;fill-rule:evenodd;stroke-linecap:round;stroke-linejoin:round;stroke-miterlimit:4.1;-inkscape-stroke:none"/> <path d="m 331.88242,167.61522 c -0.2652,0.009 -0.51603,0.12261 -0.69727,0.31641 l -8.04287,8.2035 c -0.38689,0.39461 -0.35678,1.03664 0.0469,1.41406 0.40309,0.37647 1.03488,0.35548 1.41211,-0.0469 l 8.04483,-8.2035 c 0.37778,-0.40334 0.35677,-1.03664 -0.0469,-1.41406 -0.19371,-0.18139 -0.45157,-0.27834 -0.7168,-0.26951 z" id="path43209" style="color:#000000;fill:#ffffff;fill-opacity:1;fill-rule:evenodd;stroke-linecap:round;stroke-linejoin:round;stroke-miterlimit:4.1"/> <path d="m 320.00002,187.5 h 6 v 17 h -6 z" id="rect29432" style="fill:#5762ff;fill-opacity:1;fill-rule:evenodd;stroke:none;stroke-width:1.99999;stroke-linecap:round;stroke-linejoin:round;stroke-miterlimit:4.1"/> <path d="m 325.00002,177.5 a 2,2 0 0 1 -2,2 2,2 0 0 1 -2,-2 2,2 0 0 1 2,-2 2,2 0 0 1 2,2 z" id="path44141" style="color:#000000;fill:#ffffff;fill-opacity:1;fill-rule:evenodd;stroke-width:2;stroke-linecap:round;stroke-linejoin:round;stroke-miterlimit:4.1;-inkscape-stroke:none"/> <path d="m 335.00002,167.5 a 2,2 0 0 1 -2,2 2,2 0 0 1 -2,-2 2,2 0 0 1 2,-2 2,2 0 0 1 2,2 z" id="path44135" style="color:#000000;fill:#ffffff;fill-opacity:1;fill-rule:evenodd;stroke-width:2;stroke-linecap:round;stroke-linejoin:round;stroke-miterlimit:4.1"/> <path d="m 345.00002,177.5 a 2,2 0 0 1 -2,2 2,2 0 0 1 -2,-2 2,2 0 0 1 2,-2 2,2 0 0 1 2,2 z" id="path44129" style="color:#000000;fill:#ffffff;fill-opacity:1;fill-rule:evenodd;stroke-width:2;stroke-linecap:round;stroke-linejoin:round;stroke-miterlimit:4.1"/> <path d="m 355.00002,167.5 a 2,2 0 0 1 -2,2 2,2 0 0 1 -2,-2 2,2 0 0 1 2,-2 2,2 0 0 1 2,2 z" id="path44123" style="color:#000000;fill:#ffffff;fill-opacity:1;fill-rule:evenodd;stroke-width:2;stroke-linecap:round;stroke-linejoin:round;stroke-miterlimit:4.1"/> <path d="m 330.00002,180.5 h 6 v 24 h -6 z" id="rect29442" style="fill:#ffffff;fill-opacity:1;fill-rule:evenodd;stroke:none;stroke-width:2;stroke-linecap:round;stroke-linejoin:round;stroke-miterlimit:4.1"/> <path d="m 330.00002,180.5 v 21.59375 a 4.8113847,16.153412 17.418647 0 0 4.03711,-9.08008 4.8113847,16.153412 17.418647 0 0 1.96289,-8.43164 V 180.5 Z" id="ellipse50086" style="fill:#ffffff;fill-opacity:1;fill-rule:evenodd;stroke:none;stroke-width:2.00001;stroke-linecap:round;stroke-linejoin:round;stroke-miterlimit:4.1;stroke-dasharray:none;stroke-opacity:1"/> <path d="m 340.00002,187.5 h 6 v 17 h -6 z" id="rect29444" style="fill:#0b51f4;fill-opacity:1;fill-rule:evenodd;stroke:none;stroke-width:1.99999;stroke-linecap:round;stroke-linejoin:round;stroke-miterlimit:4.1"/> <path d="m 340.00002,187.5 v 14.68164 a 6.7132263,16.676199 18.565783 0 0 2.89453,-6.54883 6.7132263,16.676199 18.565783 0 0 1.79687,-8.13281 z" id="path50179" style="fill:#3b6af7;fill-opacity:1;fill-rule:evenodd;stroke:none;stroke-width:2;stroke-linecap:round;stroke-linejoin:round;stroke-miterlimit:4.1;stroke-dasharray:none;stroke-opacity:1"/> <path d="m 350.00002,180.5 h 6 v 23.99999 h -6 z" id="rect29446" style="fill:#ffffff;fill-opacity:1;fill-rule:evenodd;stroke:none;stroke-width:2;stroke-linecap:round;stroke-linejoin:round;stroke-miterlimit:4.1"/> <path d="m 350.00002,180.5 v 22.4082 a 6.6079879,17.218437 14.51134 0 0 4.08594,-10.01367 6.6079879,17.218437 14.51134 0 0 1.16016,-12.39453 z" id="path50292" style="fill:#ffffff;fill-opacity:1;fill-rule:evenodd;stroke:none;stroke-width:2;stroke-linecap:round;stroke-linejoin:round;stroke-miterlimit:4.1;stroke-dasharray:none;stroke-opacity:1"/> </g> </g>

</svg>