<svg width="21" height="25" viewBox="0 0 21 25" fill="none" xmlns="http://www.w3.org/2000/svg">
<g clip-path="url(#clip0_234_351)">
<path d="M0.456299 6.88477C0.456299 8.22051 1.20825 9.35566 2.17505 9.77305V22.9004H0.456299V24.6582H20.1438V22.9004H18.425V9.7709C19.4321 9.38564 20.1203 8.26738 20.1438 6.88477V6.10352H0.456299V6.88477ZM5.40083 6.8209C5.40083 7.45342 5.92856 9.89414 7.8795 9.89414C9.57395 9.89414 10.3172 7.97861 10.3172 6.8209C10.3172 7.9002 10.8961 9.89189 12.7753 9.89189C14.4732 9.89189 15.2255 7.84121 15.2255 6.8209C15.2255 8.22959 15.9854 9.40059 17.0188 9.76562V22.9004H3.5813V9.77481C4.62833 9.42051 5.40083 8.2417 5.40083 6.8209ZM20.1438 5.41992H0.456299L2.9563 2.29492V0.341797H17.7219V2.29492H17.7088L20.1438 5.41992ZM13.4154 19.9166C13.4256 20.0307 13.4154 20.1657 13.3918 20.2925L12.5303 19.3001L11.7533 20.3601L12.6249 21.3482C12.5236 21.3904 12.4256 21.42 12.3242 21.42C12.0235 21.4327 11.7668 21.3187 11.5472 21.0695C11.3275 20.8077 11.2093 20.5036 11.1992 20.1278C11.1992 19.9969 11.2093 19.8491 11.2329 19.7225L11.0235 19.4733L9.77013 18.0417L7.64849 20.9639C7.52013 21.1792 7.32075 21.3271 7.09106 21.3271C6.71942 21.3271 6.4188 20.9512 6.4188 20.4867C6.4188 20.2376 6.49653 20.0095 6.64856 19.849L8.8513 16.9942L7.52013 15.4697C7.41536 15.5288 7.29716 15.5584 7.19583 15.5584C6.89513 15.5711 6.63841 15.457 6.4188 15.2079C6.19919 14.9588 6.08099 14.6547 6.07083 14.2788C6.06067 14.1647 6.07083 14.0297 6.0945 13.9029L6.96614 14.8911L7.73645 13.8354L6.86481 12.8472C6.95606 12.805 7.06411 12.7754 7.16552 12.7754C7.46622 12.7627 7.72294 12.8768 7.94255 13.1259C8.16216 13.3708 8.28036 13.6918 8.29052 14.0676C8.30067 14.1942 8.29052 14.3167 8.26685 14.4435L9.63849 16.0145L10.6418 14.6589L9.14185 13.0077L10.5033 11.0693L14.3581 15.3093L12.9966 17.2477L11.4561 15.55L10.4865 16.9816L11.9933 18.7046C12.0946 18.6624 12.1925 18.6328 12.294 18.6328C12.5947 18.6201 12.8514 18.7342 13.071 18.9833C13.2904 19.2282 13.4086 19.5323 13.4154 19.9166Z" fill="white"/>
</g>
<defs>
<clipPath id="clip0_234_351">
<rect width="20" height="25" fill="white" transform="translate(0.300049)"/>
</clipPath>
</defs>
</svg>
